<mxfile host="app.diagrams.net" modified="2023-06-02T08:26:53.741Z" agent="Mozilla/5.0 (Windows NT 10.0; Win64; x64; rv:109.0) Gecko/20100101 Firefox/113.0" etag="rGHyYtgeJVCJ9j7sez2H" version="21.2.9" type="device">
  <diagram name="Page-1" id="9wf64rI2sY2d57s6HgZ9">
    <mxGraphModel dx="699" dy="462" grid="1" gridSize="10" guides="1" tooltips="1" connect="1" arrows="1" fold="1" page="1" pageScale="1" pageWidth="850" pageHeight="1100" math="0" shadow="0">
      <root>
        <mxCell id="0" />
        <mxCell id="1" parent="0" />
        <mxCell id="r7DrXTe8p4lpt_h8KngS-16" value="Jadwal.json" style="swimlane;fontStyle=0;childLayout=stackLayout;horizontal=1;startSize=30;horizontalStack=0;resizeParent=1;resizeParentMax=0;resizeLast=0;collapsible=1;marginBottom=0;whiteSpace=wrap;html=1;" vertex="1" parent="1">
          <mxGeometry x="410" y="270" width="140" height="180" as="geometry" />
        </mxCell>
        <mxCell id="r7DrXTe8p4lpt_h8KngS-17" value="jadwalNama&lt;span style=&quot;white-space: pre;&quot;&gt;	&lt;/span&gt;STR&lt;span style=&quot;white-space: pre;&quot;&gt;	&lt;/span&gt;" style="text;strokeColor=none;fillColor=none;align=left;verticalAlign=middle;spacingLeft=4;spacingRight=4;overflow=hidden;points=[[0,0.5],[1,0.5]];portConstraint=eastwest;rotatable=0;whiteSpace=wrap;html=1;" vertex="1" parent="r7DrXTe8p4lpt_h8KngS-16">
          <mxGeometry y="30" width="140" height="30" as="geometry" />
        </mxCell>
        <mxCell id="r7DrXTe8p4lpt_h8KngS-18" value="jadwalDesc&lt;span style=&quot;white-space: pre;&quot;&gt;	&lt;/span&gt;&lt;span style=&quot;white-space: pre;&quot;&gt;	&lt;/span&gt;STR" style="text;strokeColor=none;fillColor=none;align=left;verticalAlign=middle;spacingLeft=4;spacingRight=4;overflow=hidden;points=[[0,0.5],[1,0.5]];portConstraint=eastwest;rotatable=0;whiteSpace=wrap;html=1;" vertex="1" parent="r7DrXTe8p4lpt_h8KngS-16">
          <mxGeometry y="60" width="140" height="30" as="geometry" />
        </mxCell>
        <mxCell id="r7DrXTe8p4lpt_h8KngS-19" value="jadwalJam&lt;span style=&quot;white-space: pre;&quot;&gt;	&lt;/span&gt;&lt;span style=&quot;white-space: pre;&quot;&gt;	&lt;/span&gt;INT" style="text;strokeColor=none;fillColor=none;align=left;verticalAlign=middle;spacingLeft=4;spacingRight=4;overflow=hidden;points=[[0,0.5],[1,0.5]];portConstraint=eastwest;rotatable=0;whiteSpace=wrap;html=1;" vertex="1" parent="r7DrXTe8p4lpt_h8KngS-16">
          <mxGeometry y="90" width="140" height="30" as="geometry" />
        </mxCell>
        <mxCell id="r7DrXTe8p4lpt_h8KngS-20" value="jadwalHari&lt;span style=&quot;white-space: pre;&quot;&gt;	&lt;/span&gt;&lt;span style=&quot;white-space: pre;&quot;&gt;	&lt;/span&gt;INT" style="text;strokeColor=none;fillColor=none;align=left;verticalAlign=middle;spacingLeft=4;spacingRight=4;overflow=hidden;points=[[0,0.5],[1,0.5]];portConstraint=eastwest;rotatable=0;whiteSpace=wrap;html=1;" vertex="1" parent="r7DrXTe8p4lpt_h8KngS-16">
          <mxGeometry y="120" width="140" height="30" as="geometry" />
        </mxCell>
        <mxCell id="r7DrXTe8p4lpt_h8KngS-21" value="jadwalTanggal&lt;span style=&quot;white-space: pre;&quot;&gt;	&lt;/span&gt;STR" style="text;strokeColor=none;fillColor=none;align=left;verticalAlign=middle;spacingLeft=4;spacingRight=4;overflow=hidden;points=[[0,0.5],[1,0.5]];portConstraint=eastwest;rotatable=0;whiteSpace=wrap;html=1;" vertex="1" parent="r7DrXTe8p4lpt_h8KngS-16">
          <mxGeometry y="150" width="140" height="30" as="geometry" />
        </mxCell>
        <mxCell id="r7DrXTe8p4lpt_h8KngS-22" value="&lt;div&gt;&lt;b&gt;jadwalNama&lt;/b&gt;&lt;/div&gt;&lt;div&gt;&lt;b&gt;&lt;br&gt;&lt;/b&gt;&lt;/div&gt;&lt;div&gt;Membuat nama jadwal.&lt;br&gt;&lt;/div&gt;" style="rounded=0;whiteSpace=wrap;html=1;align=center;verticalAlign=top;" vertex="1" parent="1">
          <mxGeometry x="640" y="240" width="120" height="70" as="geometry" />
        </mxCell>
        <mxCell id="r7DrXTe8p4lpt_h8KngS-23" style="edgeStyle=orthogonalEdgeStyle;rounded=0;orthogonalLoop=1;jettySize=auto;html=1;exitX=1;exitY=0.5;exitDx=0;exitDy=0;entryX=0;entryY=0.5;entryDx=0;entryDy=0;" edge="1" parent="1" source="r7DrXTe8p4lpt_h8KngS-17" target="r7DrXTe8p4lpt_h8KngS-22">
          <mxGeometry relative="1" as="geometry" />
        </mxCell>
        <mxCell id="r7DrXTe8p4lpt_h8KngS-24" value="&lt;div&gt;&lt;b&gt;jadwalDesc&lt;/b&gt;&lt;/div&gt;&lt;div&gt;&lt;b&gt;&lt;br&gt;&lt;/b&gt;&lt;/div&gt;&lt;div&gt;Membuat deskripsi jadwal.&lt;br&gt;&lt;/div&gt;" style="rounded=0;whiteSpace=wrap;html=1;align=center;verticalAlign=top;" vertex="1" parent="1">
          <mxGeometry x="640" y="325" width="120" height="70" as="geometry" />
        </mxCell>
        <mxCell id="r7DrXTe8p4lpt_h8KngS-25" style="edgeStyle=orthogonalEdgeStyle;rounded=0;orthogonalLoop=1;jettySize=auto;html=1;exitX=1;exitY=0.5;exitDx=0;exitDy=0;entryX=0;entryY=0.5;entryDx=0;entryDy=0;" edge="1" parent="1" source="r7DrXTe8p4lpt_h8KngS-18" target="r7DrXTe8p4lpt_h8KngS-24">
          <mxGeometry relative="1" as="geometry" />
        </mxCell>
        <mxCell id="r7DrXTe8p4lpt_h8KngS-26" value="&lt;div&gt;&lt;b&gt;jadwalJam&lt;/b&gt;&lt;/div&gt;&lt;div&gt;&lt;b&gt;&lt;br&gt;&lt;/b&gt;&lt;/div&gt;&lt;div&gt;Bulat tanpa menit dan menggunakan mode 0-24 jam.&lt;br&gt;&lt;/div&gt;" style="rounded=0;whiteSpace=wrap;html=1;align=center;verticalAlign=top;" vertex="1" parent="1">
          <mxGeometry x="640" y="410" width="120" height="90" as="geometry" />
        </mxCell>
        <mxCell id="r7DrXTe8p4lpt_h8KngS-27" style="edgeStyle=orthogonalEdgeStyle;rounded=0;orthogonalLoop=1;jettySize=auto;html=1;exitX=1;exitY=0.5;exitDx=0;exitDy=0;entryX=0;entryY=0.5;entryDx=0;entryDy=0;" edge="1" parent="1" source="r7DrXTe8p4lpt_h8KngS-19" target="r7DrXTe8p4lpt_h8KngS-26">
          <mxGeometry relative="1" as="geometry" />
        </mxCell>
        <mxCell id="r7DrXTe8p4lpt_h8KngS-28" value="&lt;div&gt;&lt;b&gt;jadwalHari&lt;/b&gt;&lt;/div&gt;&lt;div&gt;&lt;b&gt;&lt;br&gt;&lt;/b&gt;&lt;/div&gt;&lt;div&gt;Jika 0 maka tidak berulang. Kalau diisi berarti jadwal berulang.&lt;br&gt;&lt;/div&gt;" style="rounded=0;whiteSpace=wrap;html=1;align=center;verticalAlign=top;" vertex="1" parent="1">
          <mxGeometry x="240" y="240" width="120" height="100" as="geometry" />
        </mxCell>
        <mxCell id="r7DrXTe8p4lpt_h8KngS-29" style="edgeStyle=orthogonalEdgeStyle;rounded=0;orthogonalLoop=1;jettySize=auto;html=1;exitX=0;exitY=0.5;exitDx=0;exitDy=0;entryX=1;entryY=0.5;entryDx=0;entryDy=0;" edge="1" parent="1" source="r7DrXTe8p4lpt_h8KngS-20" target="r7DrXTe8p4lpt_h8KngS-28">
          <mxGeometry relative="1" as="geometry" />
        </mxCell>
        <mxCell id="r7DrXTe8p4lpt_h8KngS-30" value="&lt;div&gt;&lt;b&gt;jadwalTanggal&lt;/b&gt;&lt;/div&gt;&lt;div&gt;&lt;b&gt;&lt;br&gt;&lt;/b&gt;&lt;/div&gt;&lt;div&gt;Jika 0 maka jadwal berulang. Format pengisian &quot;DD-MM-YYYY&quot;.&lt;br&gt;&lt;/div&gt;" style="rounded=0;whiteSpace=wrap;html=1;align=center;verticalAlign=top;" vertex="1" parent="1">
          <mxGeometry x="240" y="400" width="120" height="100" as="geometry" />
        </mxCell>
        <mxCell id="r7DrXTe8p4lpt_h8KngS-31" style="edgeStyle=orthogonalEdgeStyle;rounded=0;orthogonalLoop=1;jettySize=auto;html=1;exitX=0;exitY=0.5;exitDx=0;exitDy=0;entryX=1;entryY=0.5;entryDx=0;entryDy=0;" edge="1" parent="1" source="r7DrXTe8p4lpt_h8KngS-21" target="r7DrXTe8p4lpt_h8KngS-30">
          <mxGeometry relative="1" as="geometry" />
        </mxCell>
      </root>
    </mxGraphModel>
  </diagram>
</mxfile>
